<svg width="150" height="150" viewBox="0 0 150 150" fill="none" xmlns="http://www.w3.org/2000/svg">
<rect x="0.5" y="0.5" width="149" height="149" fill="#E5E5E5" fill-opacity="0.13" stroke="white"/>
<rect x="35.5" y="35.5" width="79" height="79" stroke="white"/>
<path d="M82.148 23V16.196H83.296V23H82.148ZM82.736 14.796C82.512 14.796 82.3253 14.7307 82.176 14.6C82.036 14.46 81.966 14.2733 81.966 14.04C81.966 13.816 82.036 13.634 82.176 13.494C82.3253 13.354 82.512 13.284 82.736 13.284C82.96 13.284 83.142 13.354 83.282 13.494C83.4313 13.634 83.506 13.816 83.506 14.04C83.506 14.2733 83.4313 14.46 83.282 14.6C83.142 14.7307 82.96 14.796 82.736 14.796Z" fill="white"/>
<path d="M100.226 32L98.336 25.196H99.512L100.52 29.13C100.595 29.4473 100.665 29.7647 100.73 30.082C100.795 30.39 100.861 30.7027 100.926 31.02H100.982C101.057 30.7027 101.131 30.39 101.206 30.082C101.281 29.7647 101.36 29.4473 101.444 29.13L102.494 25.196H103.614L104.678 29.13C104.762 29.4473 104.841 29.7647 104.916 30.082C105 30.39 105.079 30.7027 105.154 31.02H105.21C105.285 30.7027 105.355 30.39 105.42 30.082C105.495 29.7647 105.565 29.4473 105.63 29.13L106.624 25.196H107.716L105.896 32H104.496L103.516 28.346C103.432 28.0193 103.353 27.6973 103.278 27.38C103.213 27.0627 103.138 26.7313 103.054 26.386H102.998C102.923 26.7313 102.849 27.0673 102.774 27.394C102.699 27.7113 102.615 28.0333 102.522 28.36L101.57 32H100.226Z" fill="white"/>
<path d="M121.148 60V53.196H122.1L122.198 54.428H122.24C122.473 53.9987 122.758 53.658 123.094 53.406C123.43 53.154 123.789 53.028 124.172 53.028C124.443 53.028 124.685 53.0747 124.9 53.168L124.676 54.176C124.564 54.1387 124.461 54.1107 124.368 54.092C124.275 54.0733 124.158 54.064 124.018 54.064C123.729 54.064 123.425 54.1807 123.108 54.414C122.8 54.6473 122.529 55.0533 122.296 55.632V60H121.148Z" fill="white"/>
<path d="M122.226 96L120.336 89.196H121.512L122.52 93.13C122.595 93.4473 122.665 93.7647 122.73 94.082C122.795 94.39 122.861 94.7027 122.926 95.02H122.982C123.057 94.7027 123.131 94.39 123.206 94.082C123.281 93.7647 123.36 93.4473 123.444 93.13L124.494 89.196H125.614L126.678 93.13C126.762 93.4473 126.841 93.7647 126.916 94.082C127 94.39 127.079 94.7027 127.154 95.02H127.21C127.285 94.7027 127.355 94.39 127.42 94.082C127.495 93.7647 127.565 93.4473 127.63 93.13L128.624 89.196H129.716L127.896 96H126.496L125.516 92.346C125.432 92.0193 125.353 91.6973 125.278 91.38C125.213 91.0627 125.138 90.7313 125.054 90.386H124.998C124.923 90.7313 124.849 91.0673 124.774 91.394C124.699 91.7113 124.615 92.0333 124.522 92.36L123.57 96H122.226Z" fill="white"/>
<path d="M111.148 117V110.196H112.1L112.198 111.428H112.24C112.473 110.999 112.758 110.658 113.094 110.406C113.43 110.154 113.789 110.028 114.172 110.028C114.443 110.028 114.685 110.075 114.9 110.168L114.676 111.176C114.564 111.139 114.461 111.111 114.368 111.092C114.275 111.073 114.158 111.064 114.018 111.064C113.729 111.064 113.425 111.181 113.108 111.414C112.8 111.647 112.529 112.053 112.296 112.632V117H111.148Z" fill="white"/>
<path d="M89.932 128.12L89.372 127.714L90.17 126.398L88.812 125.838L89.022 125.194L90.45 125.544L90.576 124.032H91.262L91.388 125.53L92.83 125.194L93.04 125.838L91.682 126.398L92.466 127.714L91.92 128.12L90.926 126.916L89.932 128.12Z" fill="white"/>
<path d="M62.148 137V130.196H63.296V137H62.148ZM62.736 128.796C62.512 128.796 62.3253 128.731 62.176 128.6C62.036 128.46 61.966 128.273 61.966 128.04C61.966 127.816 62.036 127.634 62.176 127.494C62.3253 127.354 62.512 127.284 62.736 127.284C62.96 127.284 63.142 127.354 63.282 127.494C63.4313 127.634 63.506 127.816 63.506 128.04C63.506 128.273 63.4313 128.46 63.282 128.6C63.142 128.731 62.96 128.796 62.736 128.796Z" fill="white"/>
<path d="M34.226 127L32.336 120.196H33.512L34.52 124.13C34.5947 124.447 34.6647 124.765 34.73 125.082C34.7953 125.39 34.8607 125.703 34.926 126.02H34.982C35.0567 125.703 35.1313 125.39 35.206 125.082C35.2807 124.765 35.36 124.447 35.444 124.13L36.494 120.196H37.614L38.678 124.13C38.762 124.447 38.8413 124.765 38.916 125.082C39 125.39 39.0793 125.703 39.154 126.02H39.21C39.2847 125.703 39.3547 125.39 39.42 125.082C39.4947 124.765 39.5647 124.447 39.63 124.13L40.624 120.196H41.716L39.896 127H38.496L37.516 123.346C37.432 123.019 37.3527 122.697 37.278 122.38C37.2127 122.063 37.138 121.731 37.054 121.386H36.998C36.9233 121.731 36.8487 122.067 36.774 122.394C36.6993 122.711 36.6153 123.033 36.522 123.36L35.57 127H34.226Z" fill="white"/>
<path d="M12.148 99V92.196H13.1L13.198 93.428H13.24C13.4733 92.9987 13.758 92.658 14.094 92.406C14.43 92.154 14.7893 92.028 15.172 92.028C15.4427 92.028 15.6853 92.0747 15.9 92.168L15.676 93.176C15.564 93.1387 15.4613 93.1107 15.368 93.092C15.2747 93.0733 15.158 93.064 15.018 93.064C14.7287 93.064 14.4253 93.1807 14.108 93.414C13.8 93.6473 13.5293 94.0533 13.296 94.632V99H12.148Z" fill="white"/>
<path d="M12.226 63L10.336 56.196H11.512L12.52 60.13C12.5947 60.4473 12.6647 60.7647 12.73 61.082C12.7953 61.39 12.8607 61.7027 12.926 62.02H12.982C13.0567 61.7027 13.1313 61.39 13.206 61.082C13.2807 60.7647 13.36 60.4473 13.444 60.13L14.494 56.196H15.614L16.678 60.13C16.762 60.4473 16.8413 60.7647 16.916 61.082C17 61.39 17.0793 61.7027 17.154 62.02H17.21C17.2847 61.7027 17.3547 61.39 17.42 61.082C17.4947 60.7647 17.5647 60.4473 17.63 60.13L18.624 56.196H19.716L17.896 63H16.496L15.516 59.346C15.432 59.0193 15.3527 58.6973 15.278 58.38C15.2127 58.0627 15.138 57.7313 15.054 57.386H14.998C14.9233 57.7313 14.8487 58.0673 14.774 58.394C14.6993 58.7113 14.6153 59.0333 14.522 59.36L13.57 63H12.226Z" fill="white"/>
<path d="M23.148 43V36.196H24.1L24.198 37.428H24.24C24.4733 36.9987 24.758 36.658 25.094 36.406C25.43 36.154 25.7893 36.028 26.172 36.028C26.4427 36.028 26.6853 36.0747 26.9 36.168L26.676 37.176C26.564 37.1387 26.4613 37.1107 26.368 37.092C26.2747 37.0733 26.158 37.064 26.018 37.064C25.7287 37.064 25.4253 37.1807 25.108 37.414C24.8 37.6473 24.5293 38.0533 24.296 38.632V43H23.148Z" fill="white"/>
<path d="M50.932 20.12L50.372 19.714L51.17 18.398L49.812 17.838L50.022 17.194L51.45 17.544L51.576 16.032H52.262L52.388 17.53L53.83 17.194L54.04 17.838L52.682 18.398L53.466 19.714L52.92 20.12L51.926 18.916L50.932 20.12Z" fill="white"/>
<path d="M73.94 23L71 13.816H72.246L73.716 18.772C73.884 19.3133 74.0287 19.822 74.15 20.298C74.2807 20.7647 74.4347 21.2687 74.612 21.81H74.668C74.836 21.2687 74.9853 20.7647 75.116 20.298C75.2467 19.822 75.3913 19.3133 75.55 18.772L77.02 13.816H78.21L75.298 23H73.94Z" fill="white"/>
<path d="M117.716 51.168C117.147 51.168 116.671 51 116.288 50.664C115.915 50.3187 115.728 49.8427 115.728 49.236C115.728 48.4893 116.059 47.92 116.722 47.528C117.394 47.1267 118.453 46.8467 119.9 46.688C119.9 46.3987 119.858 46.1233 119.774 45.862C119.699 45.6007 119.559 45.3907 119.354 45.232C119.158 45.064 118.873 44.98 118.5 44.98C118.108 44.98 117.739 45.0547 117.394 45.204C117.049 45.3533 116.741 45.5213 116.47 45.708L116.022 44.91C116.339 44.7047 116.727 44.5087 117.184 44.322C117.651 44.126 118.155 44.028 118.696 44.028C119.527 44.028 120.129 44.2847 120.502 44.798C120.875 45.302 121.062 45.9787 121.062 46.828V51H120.11L120.012 50.188H119.97C119.653 50.4493 119.303 50.678 118.92 50.874C118.547 51.07 118.145 51.168 117.716 51.168ZM118.052 50.244C118.379 50.244 118.687 50.1647 118.976 50.006C119.265 49.8473 119.573 49.6233 119.9 49.334V47.444C118.771 47.584 117.977 47.794 117.52 48.074C117.072 48.354 116.848 48.7133 116.848 49.152C116.848 49.5347 116.965 49.8147 117.198 49.992C117.431 50.16 117.716 50.244 118.052 50.244Z" fill="white"/>
<path d="M118.794 109.168C118.243 109.168 117.725 109.028 117.24 108.748C116.764 108.468 116.377 108.062 116.078 107.53C115.789 106.998 115.644 106.359 115.644 105.612C115.644 104.847 115.789 104.198 116.078 103.666C116.377 103.134 116.764 102.728 117.24 102.448C117.725 102.168 118.243 102.028 118.794 102.028C119.354 102.028 119.872 102.168 120.348 102.448C120.824 102.728 121.207 103.134 121.496 103.666C121.795 104.198 121.944 104.847 121.944 105.612C121.944 106.359 121.795 106.998 121.496 107.53C121.207 108.062 120.824 108.468 120.348 108.748C119.872 109.028 119.354 109.168 118.794 109.168ZM118.794 108.216C119.382 108.216 119.853 107.978 120.208 107.502C120.572 107.017 120.754 106.387 120.754 105.612C120.754 104.828 120.572 104.193 120.208 103.708C119.853 103.223 119.382 102.98 118.794 102.98C118.215 102.98 117.744 103.223 117.38 103.708C117.016 104.193 116.834 104.828 116.834 105.612C116.834 106.387 117.016 107.017 117.38 107.502C117.744 107.978 118.215 108.216 118.794 108.216Z" fill="white"/>
<path d="M73.94 138L71 128.816H72.246L73.716 133.772C73.884 134.313 74.0287 134.822 74.15 135.298C74.2807 135.765 74.4347 136.269 74.612 136.81H74.668C74.836 136.269 74.9853 135.765 75.116 135.298C75.2467 134.822 75.3913 134.313 75.55 133.772L77.02 128.816H78.21L75.298 138H73.94Z" fill="white"/>
<path d="M17.716 108.168C17.1467 108.168 16.6707 108 16.288 107.664C15.9147 107.319 15.728 106.843 15.728 106.236C15.728 105.489 16.0593 104.92 16.722 104.528C17.394 104.127 18.4533 103.847 19.9 103.688C19.9 103.399 19.858 103.123 19.774 102.862C19.6993 102.601 19.5593 102.391 19.354 102.232C19.158 102.064 18.8733 101.98 18.5 101.98C18.108 101.98 17.7393 102.055 17.394 102.204C17.0487 102.353 16.7407 102.521 16.47 102.708L16.022 101.91C16.3393 101.705 16.7267 101.509 17.184 101.322C17.6507 101.126 18.1547 101.028 18.696 101.028C19.5267 101.028 20.1287 101.285 20.502 101.798C20.8753 102.302 21.062 102.979 21.062 103.828V108H20.11L20.012 107.188H19.97C19.6527 107.449 19.3027 107.678 18.92 107.874C18.5467 108.07 18.1453 108.168 17.716 108.168ZM18.052 107.244C18.3787 107.244 18.6867 107.165 18.976 107.006C19.2653 106.847 19.5733 106.623 19.9 106.334V104.444C18.7707 104.584 17.9773 104.794 17.52 105.074C17.072 105.354 16.848 105.713 16.848 106.152C16.848 106.535 16.9647 106.815 17.198 106.992C17.4313 107.16 17.716 107.244 18.052 107.244Z" fill="white"/>
<path d="M18.794 51.168C18.2433 51.168 17.7253 51.028 17.24 50.748C16.764 50.468 16.3767 50.062 16.078 49.53C15.7887 48.998 15.644 48.3587 15.644 47.612C15.644 46.8467 15.7887 46.198 16.078 45.666C16.3767 45.134 16.764 44.728 17.24 44.448C17.7253 44.168 18.2433 44.028 18.794 44.028C19.354 44.028 19.872 44.168 20.348 44.448C20.824 44.728 21.2067 45.134 21.496 45.666C21.7947 46.198 21.944 46.8467 21.944 47.612C21.944 48.3587 21.7947 48.998 21.496 49.53C21.2067 50.062 20.824 50.468 20.348 50.748C19.872 51.028 19.354 51.168 18.794 51.168ZM18.794 50.216C19.382 50.216 19.8533 49.978 20.208 49.502C20.572 49.0167 20.754 48.3867 20.754 47.612C20.754 46.828 20.572 46.1933 20.208 45.708C19.8533 45.2227 19.382 44.98 18.794 44.98C18.2153 44.98 17.744 45.2227 17.38 45.708C17.016 46.1933 16.834 46.828 16.834 47.612C16.834 48.3867 17.016 49.0167 17.38 49.502C17.744 49.978 18.2153 50.216 18.794 50.216Z" fill="white"/>
<path d="M125.29 70.168C124.562 70.168 124.053 69.958 123.764 69.538C123.484 69.118 123.344 68.572 123.344 67.9V64.134H122.336V63.266L123.4 63.196L123.54 61.292H124.506V63.196H126.34V64.134H124.506V67.914C124.506 68.334 124.581 68.6607 124.73 68.894C124.889 69.118 125.164 69.23 125.556 69.23C125.677 69.23 125.808 69.2113 125.948 69.174C126.088 69.1273 126.214 69.0853 126.326 69.048L126.55 69.916C126.363 69.9813 126.158 70.0373 125.934 70.084C125.719 70.14 125.505 70.168 125.29 70.168Z" fill="white"/>
<path d="M51.906 134.168C51.2993 134.168 50.7487 134.028 50.254 133.748C49.7593 133.459 49.3673 133.048 49.078 132.516C48.7887 131.984 48.644 131.349 48.644 130.612C48.644 129.865 48.7887 129.226 49.078 128.694C49.3767 128.162 49.7593 127.751 50.226 127.462C50.6927 127.173 51.1827 127.028 51.696 127.028C52.564 127.028 53.2313 127.317 53.698 127.896C54.174 128.475 54.412 129.249 54.412 130.22C54.412 130.341 54.4073 130.463 54.398 130.584C54.398 130.696 54.3887 130.794 54.37 130.878H49.778C49.8247 131.597 50.0487 132.171 50.45 132.6C50.8607 133.029 51.3927 133.244 52.046 133.244C52.3727 133.244 52.6713 133.197 52.942 133.104C53.222 133.001 53.488 132.871 53.74 132.712L54.146 133.468C53.8567 133.655 53.5253 133.818 53.152 133.958C52.788 134.098 52.3727 134.168 51.906 134.168ZM49.764 130.052H53.404C53.404 129.361 53.2547 128.839 52.956 128.484C52.6667 128.12 52.256 127.938 51.724 127.938C51.248 127.938 50.8187 128.125 50.436 128.498C50.0627 128.862 49.8387 129.38 49.764 130.052Z" fill="white"/>
<path d="M30.148 36V26.032H31.282V32.78H31.324L34.222 29.196H35.496L33.214 31.926L35.804 36H34.544L32.556 32.724L31.282 34.208V36H30.148Z" fill="white"/>
<path d="M90.906 26.168C90.2993 26.168 89.7487 26.028 89.254 25.748C88.7593 25.4587 88.3673 25.048 88.078 24.516C87.7887 23.984 87.644 23.3493 87.644 22.612C87.644 21.8653 87.7887 21.226 88.078 20.694C88.3767 20.162 88.7593 19.7513 89.226 19.462C89.6927 19.1727 90.1827 19.028 90.696 19.028C91.564 19.028 92.2313 19.3173 92.698 19.896C93.174 20.4747 93.412 21.2493 93.412 22.22C93.412 22.3413 93.4073 22.4627 93.398 22.584C93.398 22.696 93.3887 22.794 93.37 22.878H88.778C88.8247 23.5967 89.0487 24.1707 89.45 24.6C89.8607 25.0293 90.3927 25.244 91.046 25.244C91.3727 25.244 91.6713 25.1973 91.942 25.104C92.222 25.0013 92.488 24.8707 92.74 24.712L93.146 25.468C92.8567 25.6547 92.5253 25.818 92.152 25.958C91.788 26.098 91.3727 26.168 90.906 26.168ZM88.764 22.052H92.404C92.404 21.3613 92.2547 20.8387 91.956 20.484C91.6667 20.12 91.256 19.938 90.724 19.938C90.248 19.938 89.8187 20.1247 89.436 20.498C89.0627 20.862 88.8387 21.38 88.764 22.052Z" fill="white"/>
<path d="M12.29 89.168C11.562 89.168 11.0533 88.958 10.764 88.538C10.484 88.118 10.344 87.572 10.344 86.9V83.134H9.336V82.266L10.4 82.196L10.54 80.292H11.506V82.196H13.34V83.134H11.506V86.914C11.506 87.334 11.5807 87.6607 11.73 87.894C11.8887 88.118 12.164 88.23 12.556 88.23C12.6773 88.23 12.808 88.2113 12.948 88.174C13.088 88.1273 13.214 88.0853 13.326 88.048L13.55 88.916C13.3633 88.9813 13.158 89.0373 12.934 89.084C12.7193 89.14 12.5047 89.168 12.29 89.168Z" fill="white"/>
<path d="M104.148 124V114.032H105.282V120.78H105.324L108.222 117.196H109.496L107.214 119.926L109.804 124H108.544L106.556 120.724L105.282 122.208V124H104.148Z" fill="white"/>
<path d="M65.9679 63.0791H80.9679V67.0791H65.9679V63.0791Z" fill="#D400B3"/>
<path d="M76.9679 66.0791H80.9679V81.0791H76.9679V66.0791Z" fill="#D400B3"/>
</svg>
